<svg xmlns="http://www.w3.org/2000/svg" width="400" height="340"><linearGradient id="grad1" x1="0%" y1="0%" x2="100%" y2="0%"><stop offset="0%" style="stop-color:#7d83ff;stop-opacity:1" /><stop offset="100%" style="stop-color:#e94f37;stop-opacity:1" /></linearGradient><path fill="url(#grad1)" d="M266.98478494003854,261.4018697081774C261.0568141527761,274.7095085678407,249.69045758200608,293.6674991308011,235.9434838551541,299.84583315797977C222.19651012830215,306.02416718515843,201.55556539229124,302.5315644338672,184.50294257892676,298.4718738712493C167.45031976556228,294.41218330863137,144.725654286012,288.5663354274807,133.62774697496718,275.48768978227247C122.52983966392237,262.40904413706426,114.83597109795897,236.25848881584514,117.9154987126579,220C120.99502632735681,203.74151118415486,141.2375609340328,191.72497965127937,152.10491266316072,177.93675688720162C162.97226439228862,164.14853412312388,169.57092214659923,142.2615674482032,183.1196090874253,137.27066341553353C196.66829602825135,132.27975938286386,220.50343545775036,140.31589996970587,233.39703430811704,147.99133269118357C246.29063315848373,155.66676541266128,254.12882314452347,171.32181519293036,260.48120218962544,183.32325974439976C266.8335812347274,195.32470429586917,270.4273781203267,206.98689833937038,271.51130857872886,220C272.595239037131,233.01310166062962,272.912755727301,248.09423084851412,266.98478494003854,261.4018697081774" stroke="none" stroke-width="3"/></svg>