<svg xmlns="http://www.w3.org/2000/svg" width="400" height="340"><linearGradient id="grad1" x1="0%" y1="0%" x2="100%" y2="0%"><stop offset="0%" style="stop-color:#7d83ff;stop-opacity:1" /><stop offset="100%" style="stop-color:#e94f37;stop-opacity:1" /></linearGradient><path fill="url(#grad1)" d="M291.41391048985247,279.15066834209955C281.9357980771959,296.1322708619475,260.7309701999733,319.2648451544188,243.1059427937817,321.88961511908764C225.48091538759013,324.51438508375645,201.82516061367178,304.14774822025714,185.663746052703,294.89928813011227C169.50233149173422,285.6508280399674,157.80314874106273,278.8820692665705,146.137455427969,266.39885457821845C134.47176211487528,253.9156398898664,119.22433687369566,238.0489624190897,115.66958617414062,220C112.11483547458558,201.9510375809103,114.23432054837608,173.9462402489683,124.80895123063871,158.10508006368028C135.38358191290135,142.26391987839224,159.9481067735698,129.9356308559019,179.1173702677164,124.95303888827188C198.28663376186302,119.97044692064185,226.5557695424008,118.26909778792,239.82453219551826,128.2095282579001C253.0932948486357,138.1499587278802,248.7049320073873,169.2972097511358,258.7299461864211,184.59562170815244C268.7549603654549,199.89403366516908,294.5272898858158,204.24082556100882,299.974617269721,220C305.42194465362627,235.75917443899118,300.89202290250904,262.1690658222516,291.41391048985247,279.15066834209955" stroke="none" stroke-width="3"/></svg>