<svg xmlns="http://www.w3.org/2000/svg" width="400" height="340"><path fill="#FFA500" d="M281.3721804315105,271.8549243999644C267.99402278115787,284.70198859309903,252.00613981353604,290.1358168742681,235.0455851707077,297.08238515880777C218.08503052787938,304.02895344334746,196.70387221930346,316.9939199722131,179.60885257454058,313.53433410720254C162.5138329297777,310.07474824219196,140.16521900508687,291.9139256532782,132.47546730213043,276.32486996874445C124.785715599174,260.7358142842107,132.8544387809758,238.32747651525986,133.47034235680198,220C134.08624593262815,201.67252348474014,127.31362159023011,178.35582343907393,136.17088875708737,166.36001087718526C145.0281559239446,154.3641983152966,170.75102412947024,150.03573791848615,186.61394535794548,148.02512462866795C202.47686658642073,146.01451133884976,215.12630928270693,151.25474188334363,231.34841612793878,154.29633113827612C247.57052297317063,157.3379203932086,269.95223393852234,155.32404868130894,283.9465864293365,166.27466015826292C297.94093892015064,177.2252716352169,315.74359873912795,202.40328929304977,315.3145310728236,220C314.8854634065193,237.59671070695023,294.75033808186316,259.0078602068297,281.3721804315105,271.8549243999644" stroke="none" stroke-width="3"/></svg>